ModelForces
version=1
nRows=4
nColumns=155
inDegrees=no

This file contains the forces exerted on a model during a simulation.

A force is a generalized force, meaning that it can be either a force (N) or a torque (Nm).

Units are S.I. units (second, meters, Newtons, ...)
Angles are in degrees.

endheader
time	glut_med1_r	glut_med2_r	glut_med3_r	glut_min1_r	glut_min2_r	glut_min3_r	semimem_r	semiten_r	bifemlh_r	bifemsh_r	sar_r	add_long_r	add_brev_r	add_mag1_r	add_mag2_r	add_mag3_r	tfl_r	pect_r	grac_r	glut_max1_r	glut_max2_r	glut_max3_r	iliacus_r	psoas_r	quad_fem_r	gem_r	peri_r	rect_fem_r	vas_med_r	vas_int_r	vas_lat_r	med_gas_r	lat_gas_r	soleus_r	tib_post_r	flex_dig_r	flex_hal_r	tib_ant_r	per_brev_r	per_long_r	per_tert_r	ext_dig_r	ext_hal_r	glut_med1_l	glut_med2_l	glut_med3_l	glut_min1_l	glut_min2_l	glut_min3_l	semimem_l	semiten_l	bifemlh_l	bifemsh_l	sar_l	add_long_l	add_brev_l	add_mag1_l	add_mag2_l	add_mag3_l	tfl_l	pect_l	grac_l	glut_max1_l	glut_max2_l	glut_max3_l	iliacus_l	psoas_l	quad_fem_l	gem_l	peri_l	rect_fem_l	vas_med_l	vas_int_l	vas_lat_l	med_gas_l	lat_gas_l	soleus_l	tib_post_l	flex_dig_l	flex_hal_l	tib_ant_l	per_brev_l	per_long_l	per_tert_l	ext_dig_l	ext_hal_l	ercspn_r	ercspn_l	intobl_r	intobl_l	extobl_r	extobl_l	femur_lat_meniscii_r.femur_lat_r.force.X	femur_lat_meniscii_r.femur_lat_r.force.Y	femur_lat_meniscii_r.femur_lat_r.force.Z	femur_lat_meniscii_r.femur_lat_r.torque.X	femur_lat_meniscii_r.femur_lat_r.torque.Y	femur_lat_meniscii_r.femur_lat_r.torque.Z	femur_lat_meniscii_r.meniscus_lat_r.force.X	femur_lat_meniscii_r.meniscus_lat_r.force.Y	femur_lat_meniscii_r.meniscus_lat_r.force.Z	femur_lat_meniscii_r.meniscus_lat_r.torque.X	femur_lat_meniscii_r.meniscus_lat_r.torque.Y	femur_lat_meniscii_r.meniscus_lat_r.torque.Z	femur_med_meniscii_r.femur_med_r.force.X	femur_med_meniscii_r.femur_med_r.force.Y	femur_med_meniscii_r.femur_med_r.force.Z	femur_med_meniscii_r.femur_med_r.torque.X	femur_med_meniscii_r.femur_med_r.torque.Y	femur_med_meniscii_r.femur_med_r.torque.Z	femur_med_meniscii_r.meniscus_med_r.force.X	femur_med_meniscii_r.meniscus_med_r.force.Y	femur_med_meniscii_r.meniscus_med_r.force.Z	femur_med_meniscii_r.meniscus_med_r.torque.X	femur_med_meniscii_r.meniscus_med_r.torque.Y	femur_med_meniscii_r.meniscus_med_r.torque.Z	femur_med_tibia_r.tibia_upper_r.force.X	femur_med_tibia_r.tibia_upper_r.force.Y	femur_med_tibia_r.tibia_upper_r.force.Z	femur_med_tibia_r.tibia_upper_r.torque.X	femur_med_tibia_r.tibia_upper_r.torque.Y	femur_med_tibia_r.tibia_upper_r.torque.Z	femur_med_tibia_r.femur_med_r.force.X	femur_med_tibia_r.femur_med_r.force.Y	femur_med_tibia_r.femur_med_r.force.Z	femur_med_tibia_r.femur_med_r.torque.X	femur_med_tibia_r.femur_med_r.torque.Y	femur_med_tibia_r.femur_med_r.torque.Z	femur_lat_tibia_r.tibia_upper_r.force.X	femur_lat_tibia_r.tibia_upper_r.force.Y	femur_lat_tibia_r.tibia_upper_r.force.Z	femur_lat_tibia_r.tibia_upper_r.torque.X	femur_lat_tibia_r.tibia_upper_r.torque.Y	femur_lat_tibia_r.tibia_upper_r.torque.Z	femur_lat_tibia_r.femur_lat_r.force.X	femur_lat_tibia_r.femur_lat_r.force.Y	femur_lat_tibia_r.femur_lat_r.force.Z	femur_lat_tibia_r.femur_lat_r.torque.X	femur_lat_tibia_r.femur_lat_r.torque.Y	femur_lat_tibia_r.femur_lat_r.torque.Z	aACL_R	pACL_R	aPCL_R	pPCL_R	aMCL_R	mMCL_R	pMCL_R	aLCL_R	mLCL_R	pLCL_R	aPCL_L	pPCL_L	aMCL_L	aLCL_L
      0.13469415	     12.82631939	      9.64510655	     10.39112547	      4.42747636	      5.10848193	      5.64425388	    105.98575977	    170.33217495	    182.62933755	    339.35759304	    127.64735397	      9.61499451	      6.86295857	      0.00000000	      4.21354599	      7.17770405	      6.83788398	      3.74075800	    100.77731793	      6.23198769	      9.48336583	      7.14182796	     29.95032133	     21.27023263	      6.10624045	      4.05298162	      6.25344495	     33.80775238	      0.00000000	      0.00000000	      0.00000000	      0.00000000	     12.40038838	      0.00000000	      0.00000000	      0.00000000	      0.00000000	     30.23441633	      1.57804807	      1.25569677	     18.00784574	     21.74044435	      5.89629816	     12.82631939	      9.64510655	     10.39112547	      4.42747636	      5.10848193	      5.64425388	      0.00000000	      7.20940041	     13.91529149	     12.15628876	      2.52458479	      9.61499451	      6.86295857	      0.00000000	      4.21354599	      7.17770405	      6.06451814	      3.74075800	      2.61246931	      6.23198769	      9.48336583	      7.14182796	     29.95032133	     21.27023263	      6.10624045	      4.05298162	      6.25344495	     19.97004695	      0.00000000	      0.00000000	      0.00000000	     21.02225224	     10.11025310	     56.24905935	     54.48424995	      6.15810792	      5.49592106	     15.26727703	      8.26728992	     20.22045052	      3.28684033	     10.90547873	      3.46859624	     41.68728224	     41.68728224	     15.65774775	     15.65774775	     32.82477880	     32.82477880	    396.22000435	    418.00779380	     44.50430097	    -28.25696761	      9.89130898	    159.23148965	   -396.22000435	   -418.00779380	    -44.50430097	     12.65013007	    -11.78667313	     -2.48218518	    367.33563591	    544.50576741	     10.57598569	      7.89314238	     -7.78238966	    145.70043964	   -367.33563591	   -544.50576741	    -10.57598569	    -10.08615501	      6.40181408	      1.54853603	    -25.09939271	   -185.83978522	     70.88729969	     -4.72467902	      1.41252653	      2.04125354	     25.09939271	    185.83978522	    -70.88729969	     32.48338868	     -0.62791392	      9.84435921	      0.00000000	      0.00000000	      0.00000000	      0.00000000	      0.00000000	      0.00000000	      0.00000000	      0.00000000	      0.00000000	      0.00000000	      0.00000000	      0.00000000	     16.65972247	      8.90307288	    448.74354795	    318.87319043	      0.00000000	      0.00000000	      0.00000000	     -0.41222837	      0.00000000	      0.00000000	      0.00000000	      0.00000000	      0.00000001	      0.00000000
      0.13509130	     12.81361608	      9.62413721	     10.36828965	      4.41822793	      5.09832361	      5.63162974	    105.40172360	    170.08853575	    182.51842489	    339.11099710	    127.54785433	      9.59385996	      6.84875465	      0.00000000	      4.20440401	      7.16092490	      6.83506683	      3.73290469	    100.64293125	      6.21836695	      9.46259434	      7.12596984	     29.91141309	     21.22586043	      6.09323507	      4.04654980	      6.26133214	     33.73850169	      0.00000000	      0.00000000	      0.00000000	      0.00000000	     13.01576128	      0.00000000	      0.00000000	      0.00000000	      0.00000000	     30.33441999	      1.56295378	      1.24133490	     18.26511529	     21.85983454	      5.92558216	     12.81361608	      9.62413721	     10.36828965	      4.41822793	      5.09832361	      5.63162974	      0.00000000	      7.19284892	     13.89324845	     12.13032331	      2.51933559	      9.59385996	      6.84875465	      0.00000000	      4.20440401	      7.16092490	      6.05430312	      3.73290469	      2.60694376	      6.21836695	      9.46259434	      7.12596984	     29.91141309	     21.22586043	      6.09323507	      4.04654980	      6.26133214	     19.92343603	      0.00000000	      0.00000000	      0.00000000	     21.04539292	     10.11651514	     56.19049217	     54.43354394	      6.14469685	      5.48340982	     15.23859335	      8.24950094	     20.19296285	      3.28001524	     10.87068285	      3.45596190	     41.60001313	     41.60001313	     15.62252154	     15.62252154	     32.79261790	     32.79261790	    400.64955198	    415.87110191	     44.12657010	    -28.04040334	      9.97216581	    161.06099882	   -400.64955198	   -415.87110191	    -44.12657010	     12.56393295	    -11.87559972	     -2.60263540	    373.46160935	    542.60591107	     10.63497874	      7.77995568	     -7.85991992	    148.18891697	   -373.46160935	   -542.60591107	    -10.63497874	    -10.00990938	      6.46223665	      1.42993439	    -25.82227591	   -186.77726096	     71.16445315	     -4.73802367	      1.43451378	      2.05543807	     25.82227591	    186.77726096	    -71.16445315	     32.60502689	     -0.64332324	     10.13275152	      0.00000000	      0.00000000	      0.00000000	      0.00000000	      0.00000000	      0.00000000	      0.00000000	      0.00000000	      0.00000000	      0.00000000	      0.00000000	      0.00000000	     16.57163016	      8.76057782	    452.80177435	    320.83794599	      0.00000000	      0.00000000	      0.00000000	     -0.75439245	      0.00000000	      0.00000000	      0.00000000	      0.00000000	      0.00000001	      0.00000000
      0.13548844	     12.80052711	      9.60328091	     10.34557663	      4.40902890	      5.08822008	      5.61906141	    104.79867571	    169.82350861	    182.39184324	    338.83871842	    127.43543318	      9.57283974	      6.83462634	      0.00000000	      4.19530257	      7.14423323	      6.83184680	      3.72509138	    100.49572940	      6.20481987	      9.44193551	      7.11019779	     29.87271872	     21.18173156	      6.08029788	      4.04015329	      6.26883037	     33.67103612	      0.00000000	      0.00000000	      0.00000000	      0.00000000	     13.60513259	      0.00000000	      0.00000000	      0.00000000	      0.00000000	     30.43488384	      1.54643360	      1.22591698	     18.55294612	     21.98039966	      5.95523222	     12.80052711	      9.60328091	     10.34557663	      4.40902890	      5.08822008	      5.61906141	      0.00000000	      7.17638701	     13.87111229	     12.10449752	      2.51411438	      9.57283974	      6.83462634	      0.00000000	      4.19530257	      7.14423323	      6.04413855	      3.72509138	      2.60144782	      6.20481987	      9.44193551	      7.11019779	     29.87271872	     21.18173156	      6.08029788	      4.04015329	      6.26883037	     19.87702724	      0.00000000	      0.00000000	      0.00000000	     21.06762051	     10.12241458	     56.13127358	     54.38288718	      6.13152090	      5.47116245	     15.20988895	      8.23175311	     20.16543292	      3.27322732	     10.83589028	      3.44337677	     41.51321032	     41.51321032	     15.58748607	     15.58748607	     32.76063482	     32.76063482	    401.45762978	    416.50457478	     45.80657854	    -28.73451717	      9.99839827	    161.36269628	   -401.45762978	   -416.50457478	    -45.80657854	     12.61026251	    -11.92299410	     -2.54690474	    379.41121617	    546.42693253	      8.80890440	      8.48493649	     -7.93783854	    150.53411894	   -379.41121617	   -546.42693253	     -8.80890440	    -10.01111126	      6.54728085	      1.45822172	    -26.38183131	   -188.26022231	     71.75882960	     -4.76959516	      1.45961879	      2.08562878	     26.38183131	    188.26022231	    -71.75882960	     32.86810257	     -0.65729196	     10.34958393	      0.00000000	      0.00000000	      0.00000000	      0.00000000	      0.00000000	      0.00000000	      0.00000000	      0.00000000	      0.00000000	      0.00000000	      0.00000000	      0.00000000	     16.65301395	      8.79600450	    456.91164886	    322.97346327	      0.00000000	      0.00000000	      0.00000000	     -0.84269364	      0.00000000	      0.00000000	      0.00000000	      0.00000000	      0.00000001	      0.00000000
      0.13588559	     12.78706602	      9.58253701	     10.32298574	      4.39987897	      5.07817104	      5.60654902	    104.18820680	    169.55490929	    182.27088500	    338.62760283	    127.32679469	      9.55193321	      6.82057322	      0.00000000	      4.18624191	      7.12762866	      6.82863449	      3.71731809	    100.34983451	      6.19134607	      9.42138872	      7.09451134	     29.83423698	     21.13784465	      6.06742864	      4.03379190	      6.27594815	     33.62243038	      0.00000000	      0.00000000	      0.00000000	      0.00000000	     14.14991300	      0.00000000	      0.00000000	      0.00000000	      0.00000000	     30.53627323	      1.52869034	      1.20962008	     18.84817263	     22.10213250	      5.98527719	     12.78706602	      9.58253701	     10.32298574	      4.39987897	      5.07817104	      5.60654902	      0.00000000	      7.16001418	     13.84888722	     12.07881062	      2.50892100	      9.55193321	      6.82057322	      0.00000000	      4.18624191	      7.12762866	      6.03402426	      3.71731809	      2.59598135	      6.19134607	      9.42138872	      7.09451134	     29.83423698	     21.13784465	      6.06742864	      4.03379190	      6.27594815	     19.83082057	      0.00000000	      0.00000000	      0.00000000	     21.08895047	     10.12795760	     56.07141557	     54.33228309	      6.11857380	      5.45917163	     15.18116797	      8.21404730	     20.13786340	      3.26647638	     10.80111607	      3.43084400	     41.42687124	     41.42687124	     15.55264028	     15.55264028	     32.72882850	     32.72882850	    401.90793305	    415.89988090	     47.99383512	    -29.60971668	     10.02113306	    161.53049876	   -401.90793305	   -415.89988090	    -47.99383512	     12.63919216	    -11.97218863	     -2.50940375	    384.20299355	    546.53195330	      6.71255907	      9.25434799	     -7.99127626	    152.44033830	   -384.20299355	   -546.53195330	     -6.71255907	     -9.98591106	      6.61561762	      1.43691051	    -27.22227970	   -189.54074945	     72.38205734	     -4.80031926	      1.48793244	      2.10271138	     27.22227970	    189.54074945	    -72.38205734	     33.14067085	     -0.67494169	     10.68476506	      0.00000000	      0.00000000	      0.00000000	      0.00000000	      0.00000000	      0.00000000	      0.00000000	      0.00000000	      0.00000000	      0.00000000	      0.00000000	      0.00000000	     16.95320151	      9.00357958	    461.03160203	    325.14556965	      0.00000000	      0.00000000	      0.00000000	     -0.61833200	      0.00000000	      0.00000000	      0.00000000	      0.00000000	      0.00000001	      0.00000000
